# xmcd
#
# Track frame offsets:
#	150
#	16590
#	40755
#	58904
#	80877
#	99263
#	113133
#	125998
#	142191
#	191434
#	214153
#	229341
#	245793
#	270405
#	289886
#
# Disc length: 4176 seconds
#
# Revision: 0
# Processed by: cddbd v1.5.2PL0 Copyright (c) Steve Scherf et al.
# Submitted via: audiograbber 1.83.01
#
DISCID=e4104e0f
DTITLE=The Charlie Daniels Band - The Ultimate Charlie Daniels Band [CD1]
DYEAR=2002
DGENRE=Country
TTITLE0=Then, Now And Until The End
TTITLE1=Uneasy Rider
TTITLE2=The South's Gonna Do It Again
TTITLE3=Trudy
TTITLE4=Long Haired Country Boy
TTITLE5=Texas
TTITLE6=Wichita Jail
TTITLE7=Sweet Louisiana
TTITLE8=Saddle Tramp
TTITLE9=High Lonesome
TTITLE10=Midnight Wind
TTITLE11=The Devil Went Down To Georgia
TTITLE12=Reflections
TTITLE13=The Legend Of Wooley Swamp
TTITLE14=Carolina (I Remember You)
EXTD=
EXTT0=
EXTT1=
EXTT2=
EXTT3=
EXTT4=
EXTT5=
EXTT6=
EXTT7=
EXTT8=
EXTT9=
EXTT10=
EXTT11=
EXTT12=
EXTT13=
EXTT14=
PLAYORDER=
